<svg width="60" height="60" viewBox="0 0 60 60" fill="none" xmlns="http://www.w3.org/2000/svg">
<path d="M53.3333 0H6.66667C2.98177 0 0 2.98177 0 6.66667V53.3333C0 57.0182 2.98177 60 6.66667 60H53.3333C57.0182 60 60 57.0182 60 53.3333V6.66667C60 2.98177 57.0182 0 53.3333 0ZM20 46.6667H11.5885V23.3333H20V46.6667ZM15.651 19.0625C13.0729 19.0625 11.3542 17.3438 11.3542 15.0521C11.3542 12.7734 13.0729 11.0547 15.9245 11.0547C18.5026 11.0547 20.2214 12.7734 20.2214 15.0521C20.2214 17.3438 18.5026 19.0625 15.651 19.0625ZM50 46.6667H41.862V33.9193C41.862 30.3906 39.6875 29.5703 38.8802 29.5703C38.0599 29.5703 35.3516 30.1172 35.3516 33.9193C35.3516 34.4531 35.3516 46.6667 35.3516 46.6667H26.9401V23.3333H35.3516V26.5885C36.4323 24.6875 38.6068 23.3333 42.6693 23.3333C46.7448 23.3333 50 26.5885 50 33.9193V46.6667Z" fill="#7323D8"/>
</svg>
