<svg width="46" height="46" viewBox="0 0 46 46" fill="none" xmlns="http://www.w3.org/2000/svg">
<path d="M13 0.5C6.0957 0.5 0.5 6.0957 0.5 13V33C0.5 39.9043 6.0957 45.5 13 45.5H33C39.9043 45.5 45.5 39.9043 45.5 33V13C45.5 6.0957 39.9043 0.5 33 0.5H13ZM38 5.5C39.377 5.5 40.5 6.62305 40.5 8C40.5 9.37695 39.377 10.5 38 10.5C36.623 10.5 35.5 9.37695 35.5 8C35.5 6.62305 36.623 5.5 38 5.5ZM23 10.5C29.9043 10.5 35.5 16.0957 35.5 23C35.5 29.9043 29.9043 35.5 23 35.5C16.0957 35.5 10.5 29.9043 10.5 23C10.5 16.0957 16.0957 10.5 23 10.5ZM23 15.5C18.8594 15.5 15.5 18.8594 15.5 23C15.5 27.1406 18.8594 30.5 23 30.5C27.1406 30.5 30.5 27.1406 30.5 23C30.5 18.8594 27.1406 15.5 23 15.5Z" fill="#7323D8"/>
</svg>
