<svg width="50" height="40" viewBox="0 0 50 40" fill="none" xmlns="http://www.w3.org/2000/svg">
<path d="M48.9551 5.46387C48.3789 3.31543 46.6846 1.62109 44.5361 1.04492C40.6348 5.96046e-07 25 0 25 0C25 0 9.36523 5.96046e-07 5.46387 1.04492C3.31543 1.62109 1.62109 3.31543 1.04492 5.46387C0 9.36523 0 20 0 20C0 20 0 30.6348 1.04492 34.5361C1.62109 36.6846 3.31543 38.3789 5.46387 38.9551C9.36523 40 25 40 25 40C25 40 40.6348 40 44.5361 38.9551C46.6895 38.3789 48.3789 36.6846 48.9551 34.5361C50 30.6348 50 20 50 20C50 20 50 9.36523 48.9551 5.46387ZM20 28.6621V11.3379L35 20L20 28.6621Z" fill="#7323D8"/>
</svg>
